<svg width="91" height="91" viewBox="0 0 91 91" fill="none" xmlns="http://www.w3.org/2000/svg">
<g clip-path="url(#clip0_88_216)">
<path d="M88.0325 0H2.96745C1.32856 0 0 1.32856 0 2.96745V88.0327C0 89.6714 1.32856 91 2.96745 91H88.0327C89.6714 91 91.0002 89.6714 91.0002 88.0325V2.96745C91 1.32856 89.6714 0 88.0325 0ZM85.0653 85.0653H5.93473V5.93473H85.0651V85.0653H85.0653Z" fill="white"/>
<path d="M76.1628 11.8696H14.8366C13.1979 11.8696 11.8691 13.1982 11.8691 14.8371V76.1631C11.8691 77.8018 13.1977 79.1305 14.8366 79.1305H76.1626C77.8013 79.1305 79.1301 77.802 79.1301 76.1631V14.8369C79.1301 13.1982 77.8015 11.8696 76.1628 11.8696ZM31.6519 56.3804V73.1956H17.804V37.5869H31.6519V56.3804ZM17.804 31.6522V17.8044H53.4128V31.6522H34.6193H17.804ZM53.4128 37.5869V53.4129H37.5868V37.5869H53.4128ZM73.1953 73.1956H37.5866V59.3478H56.3801H73.1953V73.1956ZM73.1953 53.4131H59.3475V34.6196V17.8044H73.1953V53.4131Z" fill="white"/>
</g>
<defs>
<clipPath id="clip0_88_216">
<rect width="91" height="91" fill="white"/>
</clipPath>
</defs>
</svg>
