<?xml version="1.0" encoding="UTF-8"?>
<svg id="Layer_1" data-name="Layer 1" xmlns="http://www.w3.org/2000/svg" width="207.79" height="81.86" viewBox="0 0 207.79 81.86">
  <defs>
    <style>
      .cls-1 {
        fill: #fff;
        stroke-width: 0px;
      }
    </style>
  </defs>
  <g>
    <g>
      <path class="cls-1" d="m10.37,80.17c0,.68-.14,1.13-.41,1.35s-.76.34-1.46.34h-3.18c-.7,0-1.18-.11-1.44-.32-.29-.24-.44-.69-.44-1.37v-1.49l1.76-.32v2.17h3.42v-5.82h1.76v5.46Z"/>
      <path class="cls-1" d="m15.31,81.86h-1.74v-7.16h1.74v7.16Z"/>
      <path class="cls-1" d="m26.97,80.17c0,.68-.14,1.13-.41,1.35-.28.23-.76.34-1.46.34h-4.74c-.7,0-1.18-.11-1.45-.34s-.41-.68-.41-1.35v-5.46h1.74v5.82h4.97v-5.82h1.76v5.46Z"/>
      <path class="cls-1" d="m42.97,80.17c0,.68-.14,1.13-.41,1.35s-.76.34-1.46.34h-3.18c-.7,0-1.18-.11-1.44-.32-.29-.24-.44-.69-.44-1.37v-1.49l1.76-.32v2.17h3.42v-5.82h1.76v5.46Z"/>
      <path class="cls-1" d="m47.91,81.86h-1.74v-7.16h1.74v7.16Z"/>
      <path class="cls-1" d="m58.82,75.99h-3.47v5.87h-1.74v-5.87h-3.45v-1.29h8.66v1.29Z"/>
      <path class="cls-1" d="m69.28,80.17c0,.68-.14,1.13-.41,1.35s-.76.34-1.45.34h-4.65c-.77,0-1.27-.13-1.51-.38-.24-.25-.36-.76-.36-1.51l1.56-.29v.85h5.26v-1.64h-4.64c-.7,0-1.18-.11-1.44-.32-.29-.24-.44-.69-.44-1.37v-.8c0-.68.15-1.13.44-1.37.26-.21.74-.32,1.44-.32h4.25c.72,0,1.22.11,1.48.34.26.23.4.69.4,1.39l-1.51.32v-.76h-4.92v1.51h4.65c.7,0,1.18.11,1.45.33.27.22.41.67.41,1.36v.98Z"/>
      <path class="cls-1" d="m80.77,80.17c0,.68-.14,1.13-.41,1.35-.28.23-.76.34-1.46.34h-4.74c-.7,0-1.18-.11-1.45-.34s-.41-.68-.41-1.35v-5.46h1.74v5.82h4.97v-5.82h1.76v5.46Z"/>
      <path class="cls-1" d="m93.22,78.53c0,.36-.13.66-.38.92-.25.25-.56.38-.92.38s-.66-.13-.91-.38c-.25-.25-.38-.56-.38-.92s.13-.66.38-.91.56-.38.92-.38.66.13.91.38c.25.25.38.56.38.91Z"/>
      <path class="cls-1" d="m112.9,81.86h-1.62v-4.92l-3.2,4.06h-.34l-3.23-3.94v4.81h-1.4v-7.16h1.4l3.5,4.25,3.49-4.25h1.4v7.16Z"/>
      <path class="cls-1" d="m125.16,80.17c0,.68-.14,1.13-.41,1.35s-.76.34-1.45.34h-5.53c-.7,0-1.18-.11-1.45-.33s-.41-.67-.41-1.36v-3.77c0-.69.14-1.14.41-1.36.27-.22.76-.33,1.45-.33h5.53c.7,0,1.18.11,1.45.33.27.22.41.67.41,1.36v3.77Zm-1.74.32v-4.47h-5.77v4.47h5.77Z"/>
      <path class="cls-1" d="m137.02,81.86h-1.2l-6.06-4.82v4.82h-1.59v-7.16h1.2l6.07,4.75v-4.75h1.57v7.16Z"/>
      <path class="cls-1" d="m147.95,75.99h-3.47v5.87h-1.74v-5.87h-3.45v-1.29h8.66v1.29Z"/>
      <path class="cls-1" d="m159.07,81.86h-2.5l-3-2.71h-1.64v2.71h-1.73v-7.16h6.45c1.12,0,1.67.46,1.67,1.39v1.69c0,.7-.3,1.13-.9,1.29-.2.06-.79.08-1.76.08l3.4,2.71Zm-2.37-4.52v-.83c0-.38-.27-.58-.8-.58h-3.98v1.98h3.98c.53,0,.8-.19.8-.58Z"/>
      <path class="cls-1" d="m168.96,81.86h-7.77v-7.16h7.68v1.27h-5.92v1.56h3.45v1.24h-3.45v1.76h6.01v1.34Z"/>
      <path class="cls-1" d="m180.64,81.86h-1.96l-.9-1.57h-4.74l-.9,1.57h-1.74l4.25-7.16h1.68l4.31,7.16Zm-3.57-2.88l-1.68-2.98-1.61,2.98h3.28Z"/>
      <path class="cls-1" d="m189.79,81.86h-7.38v-7.16h1.76v5.82h5.62v1.34Z"/>
    </g>
    <rect class="cls-1" x="162.3" y="72.19" width="5.34" height="1.04"/>
  </g>
  <g>
    <path class="cls-1" d="m66.3,0l-10.56,29.91h-8.16L58.14,0h8.16Z"/>
    <path class="cls-1" d="m101.16,7.97l-6.78,19.17c-.35.97-.99,1.71-1.91,2.21-.72.37-1.51.56-2.36.56h-21.68c-3,0-4.49-1.28-4.49-3.86,0-1.15.29-2.48.86-4.01l.64-1.57,6.14-17.6c.32-.97.95-1.71,1.87-2.21.75-.4,1.55-.6,2.4-.6h21.68c2.97,0,4.46,1.29,4.46,3.86,0,1.07-.27,2.42-.82,4.04Zm-8.72,1.46c.1-.25.15-.5.15-.75,0-1.05-.45-1.57-1.35-1.57h-10.86c-1.45,0-2.43.75-2.96,2.25l-3.89,11.19c-.1.25-.15.51-.15.79,0,1.02.45,1.54,1.35,1.54h10.86c.9,0,1.58-.22,2.06-.67.3-.3.59-.81.86-1.53l3.93-11.23Z"/>
    <g>
      <path class="cls-1" d="m125.95,4.96l1.46-4.15c.06-.16.03-.34-.07-.47-.1-.14-.26-.22-.42-.22h-18.84c-.22,0-.42.14-.49.34l-1.48,4.15c-.06.16-.03.34.06.47.1.14.26.22.43.22h6.42l-4.45,12.6c-.06.16-.03.34.07.47.1.14.28.2.43.22l4.61-.02s.04.01.06.01c.03,0,.06,0,.09,0,.22,0,.42-.14.49-.35l4.57-12.95h6.57c.22,0,.42-.14.49-.35Z"/>
      <path class="cls-1" d="m149.04.34c-.1-.14-.26-.22-.43-.22h-4.74c-.22,0-.42.14-.49.35l-2.13,6.01h-7.61l1.97-5.66c.06-.16.03-.34-.07-.47-.1-.14-.26-.22-.42-.22h-4.78c-.22,0-.42.14-.49.35l-6.18,17.44c-.06.16-.03.34.07.47s.26.22.42.22h4.76c.22,0,.42-.14.49-.35l2.37-6.7h7.65l-2.26,6.36c-.06.16-.03.34.06.47s.26.22.43.22h4.76c.22,0,.42-.14.49-.35l6.2-17.44c.06-.16.03-.34-.06-.47Z"/>
    </g>
  </g>
  <g>
    <path class="cls-1" d="m37.94,41.71l-2.78,7.79c-.68,1.9-1.87,3.03-3.55,3.37H12.15l-4.21,11.82-7.94-.04,10.32-29.2h23.01c1.46,0,2.67.35,3.62,1.04s1.43,1.69,1.43,2.98c0,.68-.15,1.43-.44,2.23Zm-8.71,2.09c.02-.1.04-.2.04-.29,0-.78-.61-1.17-1.83-1.17h-11.6l-1.32,3.73h11.86c.85,0,1.46-.1,1.83-.29.29-.17.51-.49.66-.95l.37-1.02Z"/>
    <path class="cls-1" d="m64.11,57.81l-2.41,6.88s-19.37.02-22.48,0-4.01-2.22-3.13-5.24c.47-1.61,8.16-23.92,8.16-23.92h7.9l-7.65,22.28h19.61Z"/>
    <path class="cls-1" d="m104.01,41.34l-8.23,23.34h-24.55c-1.34,0-2.34-.44-3-1.32-.54-.76-.8-1.71-.8-2.86,0-.78.12-1.5.37-2.16l3.15-9.06c.76-2.2,2.3-3.3,4.65-3.3h18.81l.55-1.7c.07-.22.11-.42.11-.62,0-.85-.55-1.27-1.65-1.27h-20.09l2.41-6.88h24.73c2.59,0,3.88,1.29,3.88,3.88,0,.68-.11,1.33-.33,1.94Zm-12.04,11.53h-12.59c-1.15,0-1.9.52-2.27,1.56l-.48,1.26c-.1.32-.15.62-.15.89,0,.82.41,1.23,1.24,1.23h12.51l1.72-4.94Z"/>
    <path class="cls-1" d="m137.78,43.25l-7.61,21.44h-7.9l6.99-20.01c.07-.24.11-.49.11-.73,0-1.02-.43-1.54-1.28-1.54h-10.61c-1.44,0-2.4.73-2.89,2.2l-6.99,20.09h-7.98l10.21-29.16h24.41c2.9,0,4.35,1.26,4.35,3.77,0,1.05-.27,2.37-.8,3.95Z"/>
    <path class="cls-1" d="m172.6,42.86l-3.81,10.74h-23.05l-.62,1.88c-.17.47-.26.86-.26,1.18,0,.76.49,1.14,1.46,1.14h21l-2.41,6.88h-22.65c-4.29,0-6.44-1.34-6.44-4.02,0-.76.27-1.91.8-3.48l6.7-19.39c.54-1.51,1.84-2.27,3.91-2.27h21.48c3.07,0,4.61,1.27,4.61,3.8,0,.95-.24,2.13-.73,3.54Zm-8.53,1.43c.05-.15.07-.3.07-.47,0-.94-.6-1.41-1.79-1.41h-10.25c-.88,0-1.5.06-1.87.18-.51.19-.85.56-1.02,1.09l-.99,3.05h15.04l.8-2.43Z"/>
    <path class="cls-1" d="m186.85,64.65l-7.98.04,7.87-22.28h-12s.55-1.77,1.59-4.43,4.95-2.52,4.95-2.52h26.51l-2.45,6.95h-10.62l-7.87,22.28v-.04Z"/>
  </g>
</svg>