<?xml version="1.0" encoding="UTF-8"?>
<svg id="Layer_1" data-name="Layer 1" xmlns="http://www.w3.org/2000/svg" viewBox="0 0 270.35 172.88">
  <defs>
    <style>
      .cls-1 {
        fill: #fff;
        stroke-width: 0px;
      }
    </style>
  </defs>
  <path class="cls-1" d="m119.34,163.32c-52.71,14.78-104.18-28.13-98.04-82.57C27.08,26.27,93.15-3.15,134.89,21.36c17.97,10.55,35.16,29.72,38.1,49.09,0,0,2-30.3-31.25-53.91C88.05-21.59,7.39,9.35.52,77.21c-7.38,72.97,64.97,109.54,120.19,90.81,12.55-4.26,26.2-11.67,36.18-27.99,0,0-10.95,15.83-37.55,23.29Z"/>
  <path class="cls-1" d="m114.62,91.62l-2.55,7.15c-.63,1.74-1.71,2.77-3.25,3.09h-17.85l-3.86,10.84-7.28-.03,9.46-26.77h21.1c1.34,0,2.45.32,3.32.96s1.31,1.55,1.31,2.73c0,.63-.13,1.31-.4,2.05Zm-7.98,1.91c.02-.09.03-.18.03-.27,0-.72-.56-1.07-1.68-1.07h-10.63l-1.21,3.42h10.87c.78,0,1.34-.09,1.68-.27.27-.16.47-.45.6-.87l.34-.94Z"/>
  <path class="cls-1" d="m138.62,106.38l-2.21,6.31s-17.76.02-20.61,0-3.68-2.04-2.87-4.81c.43-1.48,7.49-21.93,7.49-21.93h7.25l-7.01,20.43h17.98Z"/>
  <path class="cls-1" d="m175.2,91.28l-7.55,21.4h-22.51c-1.23,0-2.15-.4-2.75-1.21-.49-.69-.74-1.57-.74-2.62,0-.72.11-1.38.34-1.98l2.89-8.3c.69-2.02,2.11-3.03,4.26-3.03h17.24l.5-1.56c.07-.2.1-.39.1-.56,0-.77-.5-1.16-1.51-1.16h-18.42l2.21-6.31h22.68c2.37,0,3.56,1.19,3.56,3.56,0,.63-.1,1.22-.3,1.78Zm-11.04,10.57h-11.54c-1.05,0-1.74.48-2.08,1.43l-.44,1.16c-.09.3-.13.57-.13.82,0,.75.38,1.12,1.14,1.12h11.47l1.58-4.53Z"/>
  <path class="cls-1" d="m206.17,93.03l-6.98,19.66h-7.25l6.41-18.35c.07-.22.1-.45.1-.67,0-.94-.39-1.41-1.17-1.41h-9.73c-1.32,0-2.2.67-2.65,2.01l-6.41,18.42h-7.31l9.36-26.74h22.38c2.66,0,3.99,1.15,3.99,3.46,0,.96-.25,2.17-.74,3.62Z"/>
  <path class="cls-1" d="m238.09,92.68l-3.49,9.84h-21.14l-.57,1.73c-.16.43-.23.79-.23,1.08,0,.7.45,1.05,1.34,1.05h19.26l-2.21,6.31h-20.77c-3.94,0-5.9-1.23-5.9-3.69,0-.69.25-1.76.74-3.19l6.14-17.78c.49-1.39,1.69-2.08,3.59-2.08h19.69c2.82,0,4.23,1.16,4.23,3.48,0,.87-.22,1.95-.67,3.25Zm-7.82,1.31c.04-.13.07-.28.07-.43,0-.86-.55-1.3-1.64-1.3h-9.39c-.8,0-1.38.06-1.71.17-.47.18-.78.51-.94,1l-.91,2.79h13.79l.74-2.23Z"/>
  <path class="cls-1" d="m251.15,112.65l-7.31.03,7.21-20.43h-11s.51-1.62,1.45-4.06,4.54-2.31,4.54-2.31h24.31l-2.25,6.37h-9.74l-7.21,20.43v-.03Z"/>
  <g>
    <path class="cls-1" d="m86.98,127.45c0,.63-.13,1.06-.39,1.27s-.72.32-1.37.32h-2.98c-.65,0-1.1-.1-1.35-.3-.27-.22-.41-.65-.41-1.28v-1.39l1.65-.3v2.03h3.2v-5.45h1.65v5.12Z"/>
    <path class="cls-1" d="m91.6,129.03h-1.63v-6.7h1.63v6.7Z"/>
    <path class="cls-1" d="m102.52,127.45c0,.63-.13,1.06-.39,1.27-.26.21-.72.32-1.37.32h-4.44c-.65,0-1.11-.11-1.36-.32s-.38-.63-.38-1.27v-5.12h1.63v5.45h4.66v-5.45h1.65v5.12Z"/>
    <path class="cls-1" d="m117.51,127.45c0,.63-.13,1.06-.39,1.27s-.72.32-1.37.32h-2.98c-.65,0-1.1-.1-1.35-.3-.27-.22-.41-.65-.41-1.28v-1.39l1.65-.3v2.03h3.2v-5.45h1.65v5.12Z"/>
    <path class="cls-1" d="m122.13,129.03h-1.63v-6.7h1.63v6.7Z"/>
    <path class="cls-1" d="m132.35,123.54h-3.25v5.5h-1.63v-5.5h-3.23v-1.2h8.11v1.2Z"/>
    <path class="cls-1" d="m142.14,127.45c0,.63-.13,1.06-.38,1.27s-.71.32-1.36.32h-4.36c-.72,0-1.19-.12-1.42-.36-.23-.24-.34-.71-.34-1.42l1.46-.27v.79h4.93v-1.54h-4.34c-.65,0-1.1-.1-1.35-.3-.27-.22-.41-.65-.41-1.28v-.74c0-.63.14-1.06.41-1.28.24-.2.69-.3,1.35-.3h3.98c.68,0,1.14.11,1.39.32.25.21.37.64.37,1.3l-1.41.3v-.71h-4.61v1.41h4.36c.65,0,1.11.1,1.36.31.25.21.38.63.38,1.28v.92Z"/>
    <path class="cls-1" d="m152.9,127.45c0,.63-.13,1.06-.39,1.27-.26.21-.72.32-1.37.32h-4.44c-.65,0-1.11-.11-1.36-.32s-.38-.63-.38-1.27v-5.12h1.63v5.45h4.66v-5.45h1.65v5.12Z"/>
    <path class="cls-1" d="m164.56,125.91c0,.34-.12.62-.36.86-.24.24-.52.36-.86.36s-.62-.12-.86-.36c-.23-.24-.35-.52-.35-.86s.12-.62.36-.86.52-.35.86-.35.62.12.86.35c.23.23.35.52.35.86Z"/>
    <path class="cls-1" d="m182.98,129.03h-1.52v-4.61l-2.99,3.8h-.32l-3.03-3.69v4.5h-1.31v-6.7h1.31l3.28,3.98,3.26-3.98h1.32v6.7Z"/>
    <path class="cls-1" d="m194.46,127.45c0,.63-.13,1.06-.38,1.27s-.71.32-1.36.32h-5.18c-.65,0-1.11-.1-1.36-.31s-.38-.63-.38-1.28v-3.53c0-.64.13-1.07.38-1.27.25-.21.71-.31,1.36-.31h5.18c.65,0,1.11.1,1.36.31.25.21.38.63.38,1.27v3.53Zm-1.63.3v-4.18h-5.4v4.18h5.4Z"/>
    <path class="cls-1" d="m205.57,129.03h-1.12l-5.67-4.52v4.52h-1.49v-6.7h1.12l5.69,4.45v-4.45h1.47v6.7Z"/>
    <path class="cls-1" d="m215.8,123.54h-3.25v5.5h-1.63v-5.5h-3.23v-1.2h8.11v1.2Z"/>
    <path class="cls-1" d="m226.21,129.03h-2.34l-2.8-2.53h-1.54v2.53h-1.62v-6.7h6.04c1.04,0,1.57.43,1.57,1.3v1.58c0,.66-.28,1.06-.84,1.2-.19.05-.74.08-1.65.08l3.18,2.53Zm-2.22-4.23v-.78c0-.36-.25-.54-.74-.54h-3.72v1.85h3.72c.5,0,.74-.18.74-.54Z"/>
    <path class="cls-1" d="m235.48,129.03h-7.27v-6.7h7.19v1.19h-5.54v1.46h3.23v1.16h-3.23v1.65h5.62v1.25Z"/>
    <path class="cls-1" d="m246.41,129.03h-1.84l-.84-1.47h-4.44l-.84,1.47h-1.63l3.98-6.7h1.57l4.04,6.7Zm-3.34-2.69l-1.57-2.79-1.5,2.79h3.07Z"/>
    <path class="cls-1" d="m254.98,129.03h-6.91v-6.7h1.65v5.45h5.26v1.25Z"/>
  </g>
  <g>
    <path class="cls-1" d="m56.23,63.01l-9.46,26.8h-7.31l9.46-26.8h7.31Z"/>
    <path class="cls-1" d="m87.46,70.16l-6.07,17.18c-.31.87-.88,1.53-1.71,1.98-.65.34-1.35.5-2.11.5h-19.42c-2.68,0-4.03-1.15-4.03-3.46,0-1.03.26-2.23.77-3.59l.57-1.41,5.5-15.77c.29-.87.85-1.53,1.68-1.98.67-.36,1.39-.54,2.15-.54h19.42c2.66,0,3.99,1.15,3.99,3.46,0,.96-.25,2.17-.74,3.62Zm-7.82,1.31c.09-.22.13-.45.13-.67,0-.94-.4-1.41-1.21-1.41h-9.73c-1.3,0-2.18.67-2.65,2.01l-3.49,10.03c-.09.22-.13.46-.13.7,0,.92.4,1.38,1.21,1.38h9.73c.81,0,1.42-.2,1.85-.6.27-.27.53-.73.77-1.38l3.52-10.06Z"/>
    <g>
      <path class="cls-1" d="m109.67,67.45l1.31-3.72c.05-.14.03-.3-.06-.42-.09-.12-.23-.2-.38-.2h-16.88c-.2,0-.37.12-.44.31l-1.33,3.72c-.05.14-.03.3.06.43.09.12.23.2.38.2h5.76l-3.99,11.29c-.05.14-.03.3.06.42.09.12.26.18.38.2l4.13-.02s.03,0,.05.01c.03,0,.05,0,.08,0,.19,0,.37-.12.44-.31l4.1-11.6h5.89c.2,0,.37-.12.44-.31Z"/>
      <path class="cls-1" d="m130.36,63.32c-.09-.12-.23-.2-.38-.2h-4.24c-.2,0-.37.12-.44.31l-1.9,5.38h-6.82l1.76-5.07c.05-.14.03-.3-.06-.42-.09-.12-.23-.2-.38-.2h-4.28c-.2,0-.37.12-.44.31l-5.53,15.63c-.05.14-.03.3.06.42s.23.2.38.2h4.26c.2,0,.37-.12.44-.31l2.12-6.01h6.85l-2.03,5.7c-.05.14-.03.3.06.42s.23.2.38.2h4.26c.2,0,.37-.12.44-.31l5.55-15.63c.05-.14.03-.3-.06-.42Z"/>
    </g>
  </g>
  <rect class="cls-1" x="229.23" y="119.99" width="5" height=".97"/>
</svg>