<svg width="90" height="83" viewBox="0 0 90 83" fill="none" xmlns="http://www.w3.org/2000/svg">
<path d="M7.77761 62.82C12.0731 62.82 15.5552 59.3378 15.5552 55.0424C15.5552 50.7469 12.0731 47.2648 7.77761 47.2648C3.48215 47.2648 0 50.7469 0 55.0424C0 59.3378 3.48215 62.82 7.77761 62.82Z" fill="white"/>
<path d="M88.5843 75.8401L72.6819 63.1189C71.3208 62.0278 69.3892 62.0142 68.013 63.0841L58.7097 70.3004C58.6705 70.1511 58.6388 70.0015 58.58 69.8538L52.8471 55.693V44.0642C52.8471 41.9804 51.1584 40.2917 49.0745 40.2917C46.9906 40.2917 45.3019 41.9804 45.3019 44.0642V56.4279C45.3019 56.9124 45.3955 57.3953 45.5781 57.8435L49.0292 66.3681H34.6842L36.6733 63.4935C37.2497 62.6604 37.3689 61.5951 36.9931 60.6564L35.1492 56.0446L36.4304 57.2746C37.0159 57.8359 37.7689 58.1166 38.5204 58.1166C39.3128 58.1166 40.105 57.8056 40.698 57.19C41.8524 55.9873 41.8147 54.0783 40.612 52.9225L31.4219 44.0915C30.9254 43.6161 30.2811 43.3219 29.596 43.2615L21.491 42.5463L22.2953 40.6704C22.6681 39.7966 23.7198 38.9033 24.6403 38.674L34.6694 36.1689L53.5097 35.4416C54.0198 35.422 54.521 35.2983 54.9843 35.0794L72.8271 26.5986C74.7088 25.7037 75.5086 23.4538 74.6154 21.5719C73.7219 19.6916 71.475 18.8903 69.5886 19.7836L52.4459 27.931L39.6732 28.4244L48.8301 24.5401C50.1156 23.994 50.9957 22.7822 51.1147 21.3893L52.5288 4.94076C52.707 2.86589 51.1693 1.03689 49.0928 0.858878C47.0299 0.695862 45.1904 2.21856 45.0108 4.29485L43.7915 18.4814L30.9948 23.911L17.2309 27.1402C16.3224 27.4164 15.2087 28.3113 14.744 29.1382L6.90153 41.8821C6.43679 42.709 6.78381 43.6371 7.67874 43.9569L17.1103 48.4131C17.5238 48.5612 26.074 49.0696 27.7129 49.1646C26.972 49.9915 26.7078 51.1914 27.1486 52.2929L30.7868 61.3909L27.316 66.407C27.2254 66.5383 27.1576 66.6771 27.0911 66.8159C26.7381 67.1297 26.5041 67.5765 26.5041 68.0881V78.7858C26.5041 79.7365 27.2737 80.5061 28.2243 80.5061H55.5696C56.6381 80.7549 57.8029 80.5544 58.7371 79.83L70.2889 70.8662L83.8702 81.7299C84.5659 82.2866 85.3975 82.5568 86.2244 82.5568C87.3307 82.5568 88.4276 82.0725 89.1733 81.1413C90.4752 79.5146 90.211 77.1408 88.5843 75.8401Z" fill="white"/>
<path d="M17.2892 64.9523C12.996 64.9523 9.51318 68.4323 9.51318 72.7315C9.51318 77.0292 12.996 80.5062 17.2892 80.5062C21.584 80.5062 25.0668 77.0278 25.0668 72.7315C25.0668 68.4323 21.5838 64.9523 17.2892 64.9523Z" fill="white"/>
</svg>
