<svg width="19" height="19" viewBox="0 0 19 19" fill="none" xmlns="http://www.w3.org/2000/svg">
<g clip-path="url(#clip0_1016_1191)">
<rect x="0.203125" y="0.0410156" width="18.2" height="18.2" rx="8.97867" fill="white"/>
<path d="M4.49219 1.29688H14.362V17.3353H4.49219V1.29688Z" fill="#EEEEEE"/>
<path d="M0.787766 1.29688C0.133357 1.29688 -0.49425 1.55684 -0.956987 2.01958C-1.41972 2.48231 -1.67969 3.10992 -1.67969 3.76433L-1.67969 14.8679C-1.67969 15.5223 -1.41972 16.1499 -0.956987 16.6126C-0.49425 17.0754 0.133357 17.3353 0.787766 17.3353H4.48895V1.29688H0.787766ZM18.0599 1.29688H14.3588V17.3353H18.0599C18.7144 17.3353 19.342 17.0754 19.8047 16.6126C20.2674 16.1499 20.5274 15.5223 20.5274 14.8679V3.76433C20.5274 3.10992 20.2674 2.48231 19.8047 2.01958C19.342 1.55684 18.7144 1.29688 18.0599 1.29688Z" fill="#D52B1E"/>
<path d="M9.80186 11.8531C10.5409 11.9388 11.2034 12.016 11.9418 12.1005L11.7536 11.4824C11.7398 11.4292 11.7417 11.3731 11.7591 11.321C11.7765 11.2689 11.8087 11.2229 11.8517 11.1887L13.9978 9.44055L13.5536 9.23144C13.3581 9.16173 13.4117 9.05131 13.4827 8.78606L13.8102 7.59181L12.5636 7.85521C12.442 7.87372 12.3612 7.79661 12.3427 7.72259L12.1817 7.16062L11.196 8.26728C11.0559 8.44493 10.7722 8.44493 10.8604 8.03534L11.2817 5.79365L10.7161 6.08667C10.5575 6.17549 10.399 6.1903 10.3108 6.03176L9.53044 4.57227L8.75011 6.03176C8.66128 6.1903 8.50275 6.17549 8.34421 6.08667L7.77917 5.79365L8.20048 8.03534C8.28931 8.44493 8.00494 8.44493 7.86491 8.26728L6.87916 7.16124L6.71878 7.7232C6.70027 7.79723 6.61885 7.87434 6.49732 7.85583L5.25064 7.59243L5.5782 8.78668C5.6479 9.05193 5.70219 9.16235 5.50664 9.23205L5.0625 9.44117L7.20857 11.1894C7.2937 11.2554 7.33688 11.3744 7.30603 11.483L7.11789 12.1011L9.2584 11.8537C9.32379 11.8537 9.36697 11.8901 9.36636 11.9654L9.23435 14.2502H9.82407L9.69268 11.9654C9.69391 11.8895 9.73647 11.8531 9.80186 11.8531Z" fill="#D52B1E"/>
</g>
<defs>
<clipPath id="clip0_1016_1191">
<rect x="0.203125" y="0.0410156" width="18.2" height="18.2" rx="8.97867" fill="white"/>
</clipPath>
</defs>
</svg>
