<svg width="38" height="38" viewBox="0 0 38 38" fill="none" xmlns="http://www.w3.org/2000/svg">
<rect width="38" height="38" rx="19" fill="white"/>
<path d="M28.9168 11.2082V15.3748L18.5002 19.5415L8.0835 15.3748V11.2082C8.0835 10.9319 8.19324 10.667 8.38859 10.4716C8.58394 10.2763 8.8489 10.1665 9.12516 10.1665H27.8752C28.1514 10.1665 28.4164 10.2763 28.6117 10.4716C28.8071 10.667 28.9168 10.9319 28.9168 11.2082ZM8.0835 17.6186V25.7915C8.0835 26.0678 8.19324 26.3327 8.38859 26.5281C8.58394 26.7234 8.8489 26.8332 9.12516 26.8332H27.8752C28.1514 26.8332 28.4164 26.7234 28.6117 26.5281C28.8071 26.3327 28.9168 26.0678 28.9168 25.7915V17.6186L18.5002 21.7853L8.0835 17.6186Z" fill="black"/>
</svg>
