<svg width="35" height="36" viewBox="0 0 35 36" fill="none" xmlns="http://www.w3.org/2000/svg">
<rect x="0.46875" y="0.876953" width="34.5279" height="34.5279" rx="17.264" fill="#F58215"/>
<path d="M26.7423 11.0598V14.8457L17.2774 18.6317L7.8125 14.8457V11.0598C7.8125 10.8087 7.91222 10.568 8.08972 10.3905C8.26722 10.213 8.50796 10.1133 8.75899 10.1133H25.7958C26.0468 10.1133 26.2876 10.213 26.4651 10.3905C26.6426 10.568 26.7423 10.8087 26.7423 11.0598ZM7.8125 16.8845V24.3106C7.8125 24.5616 7.91222 24.8024 8.08972 24.9799C8.26722 25.1574 8.50796 25.2571 8.75899 25.2571H25.7958C26.0468 25.2571 26.2876 25.1574 26.4651 24.9799C26.6426 24.8024 26.7423 24.5616 26.7423 24.3106V16.8845L17.2774 20.6704L7.8125 16.8845Z" fill="white"/>
</svg>
