<svg width="45" height="45" viewBox="0 0 45 45" fill="none" xmlns="http://www.w3.org/2000/svg">
<path d="M5.625 15L15.8436 21.8124C18.2493 23.4161 19.4522 24.2181 20.7521 24.5297C21.9011 24.8049 23.0989 24.8049 24.2479 24.5297C25.5478 24.2181 26.7508 23.4161 29.1564 21.8124L39.375 15M11.625 35.625H33.375C35.4752 35.625 36.5254 35.625 37.3275 35.2162C38.0331 34.8568 38.6068 34.2831 38.9662 33.5775C39.375 32.7754 39.375 31.7252 39.375 29.625V15.375C39.375 13.2748 39.375 12.2247 38.9662 11.4225C38.6068 10.7169 38.0331 10.1432 37.3275 9.78373C36.5254 9.375 35.4752 9.375 33.375 9.375H11.625C9.52481 9.375 8.4747 9.375 7.67254 9.78373C6.96692 10.1432 6.39324 10.7169 6.03373 11.4225C5.625 12.2247 5.625 13.2748 5.625 15.375V29.625C5.625 31.7252 5.625 32.7754 6.03373 33.5775C6.39324 34.2831 6.96692 34.8568 7.67254 35.2162C8.4747 35.625 9.52479 35.625 11.625 35.625Z" stroke="white" stroke-width="2.28814" stroke-linecap="round" stroke-linejoin="round"/>
</svg>
