<svg width="35" height="36" viewBox="0 0 35 36" fill="none" xmlns="http://www.w3.org/2000/svg">
<rect y="0.876953" width="34.5279" height="34.5279" rx="17.264" fill="#F58215"/>
<path d="M19.2342 12.2343H22.1872C22.4483 12.2343 22.6986 12.1306 22.8832 11.946C23.0679 11.7614 23.1716 11.511 23.1716 11.2499V9.28122C23.1716 9.02016 23.0679 8.76979 22.8832 8.58518C22.6986 8.40058 22.4483 8.29688 22.1872 8.29688H19.2342C17.9288 8.29688 16.677 8.81541 15.754 9.73842C14.831 10.6614 14.3124 11.9133 14.3124 13.2186V16.1717H12.3437C12.0827 16.1717 11.8323 16.2754 11.6477 16.46C11.4631 16.6446 11.3594 16.8949 11.3594 17.156V19.1247C11.3594 19.3858 11.4631 19.6361 11.6477 19.8207C11.8323 20.0053 12.0827 20.1091 12.3437 20.1091H14.3124V26.9995C14.3124 27.2606 14.4161 27.5109 14.6007 27.6955C14.7853 27.8801 15.0357 27.9838 15.2968 27.9838H17.2655C17.5265 27.9838 17.7769 27.8801 17.9615 27.6955C18.1461 27.5109 18.2498 27.2606 18.2498 26.9995V20.1091H20.4351C20.6599 20.1156 20.8802 20.0449 21.0593 19.9088C21.2384 19.7727 21.3655 19.5794 21.4194 19.361L21.9116 17.3923C21.9481 17.2449 21.95 17.091 21.9172 16.9428C21.8844 16.7945 21.8177 16.6559 21.7223 16.5377C21.627 16.4195 21.5056 16.3249 21.3677 16.2614C21.2298 16.1979 21.079 16.1672 20.9272 16.1717H18.2498V13.2186C18.2498 12.9576 18.3535 12.7072 18.5381 12.5226C18.7227 12.338 18.9731 12.2343 19.2342 12.2343Z" fill="white"/>
</svg>
