<svg width="38" height="38" viewBox="0 0 38 38" fill="none" xmlns="http://www.w3.org/2000/svg">
<rect width="38" height="38" rx="19" fill="white"/>
<path d="M21.1667 12.4998H24.4167C24.704 12.4998 24.9795 12.3857 25.1827 12.1825C25.3859 11.9794 25.5 11.7038 25.5 11.4165V9.24984C25.5 8.96252 25.3859 8.68697 25.1827 8.4838C24.9795 8.28064 24.704 8.1665 24.4167 8.1665H21.1667C19.7301 8.1665 18.3523 8.73719 17.3365 9.75301C16.3207 10.7688 15.75 12.1466 15.75 13.5832V16.8332H13.5833C13.296 16.8332 13.0205 16.9473 12.8173 17.1505C12.6141 17.3536 12.5 17.6292 12.5 17.9165V20.0832C12.5 20.3705 12.6141 20.646 12.8173 20.8492C13.0205 21.0524 13.296 21.1665 13.5833 21.1665H15.75V28.7498C15.75 29.0372 15.8641 29.3127 16.0673 29.5159C16.2705 29.719 16.546 29.8332 16.8333 29.8332H19C19.2873 29.8332 19.5629 29.719 19.766 29.5159C19.9692 29.3127 20.0833 29.0372 20.0833 28.7498V21.1665H22.4883C22.7358 21.1737 22.9783 21.0959 23.1754 20.9461C23.3725 20.7963 23.5124 20.5835 23.5717 20.3432L24.1133 18.1765C24.1535 18.0143 24.1556 17.845 24.1195 17.6818C24.0834 17.5187 24.01 17.3661 23.9051 17.236C23.8002 17.1059 23.6666 17.0018 23.5148 16.932C23.363 16.8621 23.197 16.8283 23.03 16.8332H20.0833V13.5832C20.0833 13.2959 20.1975 13.0203 20.4006 12.8171C20.6038 12.614 20.8793 12.4998 21.1667 12.4998Z" fill="black"/>
</svg>
