<svg width="27" height="27" viewBox="0 0 27 27" fill="none" xmlns="http://www.w3.org/2000/svg">
<g clip-path="url(#clip0_10_238)">
<path d="M26.4857 22.5435C26.4857 23.6043 26.1868 24.6218 25.6549 25.3719C25.123 26.1221 24.4015 26.5435 23.6493 26.5435H17.9766V0.54348H23.6493C24.4015 0.54348 25.123 0.964907 25.6549 1.71505C26.1868 2.4652 26.4857 3.48261 26.4857 4.54348V22.5435Z" fill="#ED2939"/>
<path d="M3.32172 0.54348C2.56946 0.54348 1.84802 0.964907 1.3161 1.71505C0.784182 2.4652 0.485352 3.48261 0.485352 4.54348L0.485352 22.5435C0.485352 23.6043 0.784182 24.6218 1.3161 25.3719C1.84802 26.1221 2.56946 26.5435 3.32172 26.5435H8.99444V0.54348H3.32172Z" fill="#002495"/>
<path d="M8.99414 0.54348H17.976V26.5435H8.99414V0.54348Z" fill="#EEEEEE"/>
</g>
<defs>
<clipPath id="clip0_10_238">
<rect x="0.485352" y="0.54348" width="26" height="26" rx="13" fill="white"/>
</clipPath>
</defs>
</svg>
