<svg width="20" height="20" viewBox="0 0 20 20" fill="none" xmlns="http://www.w3.org/2000/svg">
<mask id="mask0_1028_952" style="mask-type:luminance" maskUnits="userSpaceOnUse" x="0" y="0" width="20" height="20">
<path d="M19.4863 10.043C19.4863 4.79626 15.233 0.542969 9.98633 0.542969C4.73962 0.542969 0.486328 4.79626 0.486328 10.043C0.486328 15.2897 4.73962 19.543 9.98633 19.543C15.233 19.543 19.4863 15.2897 19.4863 10.043Z" fill="white"/>
</mask>
<g mask="url(#mask0_1028_952)">
<path d="M19.4877 16.6199C19.4877 17.3951 19.2693 18.1387 18.8806 18.6868C18.4919 19.235 17.9646 19.543 17.415 19.543H13.2695V0.542969H17.415C17.9646 0.542969 18.4919 0.850935 18.8806 1.39912C19.2693 1.9473 19.4877 2.69079 19.4877 3.46605V16.6199Z" fill="#ED2939"/>
<path d="M2.55906 0.542969C2.00933 0.542969 1.48212 0.850935 1.09341 1.39912C0.704704 1.9473 0.486328 2.69079 0.486328 3.46605V16.6199C0.486328 17.3951 0.704704 18.1387 1.09341 18.6868C1.48212 19.235 2.00933 19.543 2.55906 19.543H6.70451V0.542969H2.55906Z" fill="#002495"/>
<path d="M6.70312 0.542969H13.2668V19.543H6.70312V0.542969Z" fill="#EEEEEE"/>
</g>
</svg>
