<?xml version="1.0" encoding="utf-8"?>
<!-- Generator: Adobe Illustrator 27.8.0, SVG Export Plug-In . SVG Version: 6.00 Build 0)  -->
<svg version="1.1" xmlns="http://www.w3.org/2000/svg" xmlns:xlink="http://www.w3.org/1999/xlink" x="0px" y="0px"
	 viewBox="0 0 19 19" style="enable-background:new 0 0 19 19;" xml:space="preserve">
<style type="text/css">
	.st0{fill:#1A459D;}
	.st1{clip-path:url(#SVGID_00000045585580516122136450000014337494800540874125_);fill:none;}
	.st2{clip-path:url(#SVGID_00000045585580516122136450000014337494800540874125_);}
	.st3{fill:#FFFFFF;}
	.st4{clip-path:url(#SVGID_00000045585580516122136450000014337494800540874125_);fill:#FFFFFF;}
</style>
<g id="Layer_1">
	<ellipse class="st0" cx="9.5" cy="9.5" rx="8.2" ry="8.4"/>
</g>
<g id="Layer_2">
	<g>
		<defs>
			<ellipse id="SVGID_1_" cx="9.5" cy="9.5" rx="8.2" ry="8.4"/>
		</defs>
		<clipPath id="SVGID_00000139251627253494002420000004662063978114929589_">
			<use xlink:href="#SVGID_1_"  style="overflow:visible;"/>
		</clipPath>
		<rect style="clip-path:url(#SVGID_00000139251627253494002420000004662063978114929589_);fill:none;" width="19" height="19"/>
		<g style="clip-path:url(#SVGID_00000139251627253494002420000004662063978114929589_);">
			<path class="st3" d="M1,3.9h17v11.3H1V3.9z"/>
			<g id="h">
				<g id="q">
					<path class="st0" d="M8.1,3.9v4.3H0.9V3.9H8.1z M5.1,6.8V6.5H4.9c0-0.1,0.1-0.2,0.1-0.3c0,0,0.1,0,0.2,0c0.1,0.1,0.1,0.2,0,0.3
						C5.6,6.4,5.6,6,5.4,5.9C5.3,5.7,5.2,5.7,5.1,5.8C4.9,5.8,4.7,6.1,4.7,6.5H4.6c0-0.4,0.1-0.5,0.2-1c0.1-0.2,0-0.5-0.1-0.7
						C4.7,4.7,4.6,4.7,4.5,4.6C4.4,4.7,4.4,4.7,4.3,4.8C4.2,5.1,4.1,5.4,4.2,5.6c0.2,0.5,0.2,0.6,0.2,1H4.3c0-0.4-0.2-0.7-0.4-0.8
						c-0.1,0-0.2,0-0.3,0.1C3.4,6,3.4,6.4,3.8,6.5c0-0.1,0-0.2,0-0.3c0.1,0,0.1,0,0.2,0c0.1,0,0.1,0.1,0.1,0.3H4v0.2h0.4
						C4.4,6.9,4.3,7,4.2,7c0,0,0.1,0.2,0.2,0.1c0,0.1,0,0.2,0.1,0.3c0.1-0.1,0.1-0.2,0.1-0.3c0.1,0,0.2-0.1,0.2-0.1
						C4.7,7,4.6,6.9,4.6,6.8H5.1z"/>
				</g>
				<g>
					<g id="q_00000060742952144833629070000018073319698081562792_">
						<path class="st0" d="M18.1,3.9v4.3h-7.1V3.9H18.1z M15,6.8V6.5h-0.2c0-0.1,0.1-0.2,0.1-0.3c0,0,0.1,0,0.2,0
							c0.1,0.1,0.1,0.2,0,0.3c0.4-0.1,0.4-0.5,0.2-0.7c-0.1-0.1-0.2-0.1-0.3-0.1c-0.2,0.1-0.4,0.4-0.4,0.8h-0.1c0-0.4,0.1-0.5,0.2-1
							c0.1-0.2,0-0.5-0.1-0.7c-0.1-0.1-0.1-0.2-0.2-0.3c-0.1,0.1-0.1,0.2-0.2,0.3c-0.1,0.2-0.2,0.5-0.1,0.7c0.2,0.5,0.2,0.6,0.2,1
							h-0.1c0-0.4-0.2-0.7-0.4-0.8c-0.1,0-0.2,0-0.3,0.1c-0.1,0.2-0.2,0.6,0.2,0.7c0-0.1,0-0.2,0-0.3c0.1,0,0.1,0,0.2,0
							c0.1,0,0.1,0.1,0.1,0.3h-0.2v0.2h0.4c0,0.1-0.1,0.2-0.2,0.3c0,0,0.1,0.2,0.2,0.1c0,0.1,0,0.2,0.1,0.3c0.1-0.1,0.1-0.2,0.1-0.3
							c0.1,0,0.2-0.1,0.2-0.1c-0.1-0.1-0.2-0.1-0.2-0.3H15z"/>
					</g>
				</g>
			</g>
			<g>
				<g id="h_00000065769383449568559940000009675125588219324071_">
					<g id="q_00000027605584977937192510000000816156747395781534_">
						<path class="st0" d="M8.1,11v4.2H1V11H8.1z M5.1,13.8v-0.2H4.9c0-0.1,0.1-0.2,0.1-0.3c0,0,0.1,0,0.2,0c0.1,0.1,0.1,0.2,0,0.3
							c0.4-0.1,0.4-0.5,0.2-0.6c-0.1-0.1-0.2-0.1-0.3-0.1c-0.2,0.1-0.4,0.4-0.4,0.8H4.6c0-0.4,0.1-0.5,0.2-0.9
							c0.1-0.2,0-0.5-0.1-0.7c-0.1-0.1-0.1-0.2-0.2-0.3c-0.1,0.1-0.1,0.2-0.2,0.3c-0.1,0.2-0.2,0.5-0.1,0.7c0.2,0.5,0.2,0.6,0.2,0.9
							H4.3c0-0.4-0.2-0.7-0.4-0.8c-0.1,0-0.2,0-0.3,0.1c-0.1,0.2-0.2,0.6,0.2,0.6c0-0.1,0-0.2,0-0.3c0.1,0,0.1,0,0.2,0
							c0.1,0,0.1,0.1,0.1,0.3H4v0.2h0.4c0,0.1-0.1,0.2-0.2,0.3c0,0,0.1,0.2,0.2,0.1c0,0.1,0,0.2,0.1,0.3c0.1-0.1,0.1-0.2,0.1-0.3
							c0.1,0,0.2-0.1,0.2-0.1c-0.1-0.1-0.2-0.1-0.2-0.3H5.1z"/>
					</g>
					<g>
						<g id="q_00000086681159707074824050000004370287271106605958_">
							<path class="st0" d="M18,11v4.2h-7.1V11H18z M15,13.8v-0.2h-0.2c0-0.1,0.1-0.2,0.1-0.3c0,0,0.1,0,0.2,0
								c0.1,0.1,0.1,0.2,0,0.3c0.4-0.1,0.4-0.5,0.2-0.6c-0.1-0.1-0.2-0.1-0.3-0.1c-0.2,0.1-0.4,0.4-0.4,0.8h-0.1
								c0-0.4,0.1-0.5,0.2-0.9c0.1-0.2,0-0.5-0.1-0.7c-0.1-0.1-0.1-0.2-0.2-0.3c-0.1,0.1-0.1,0.2-0.2,0.3c-0.1,0.2-0.2,0.5-0.1,0.7
								c0.2,0.5,0.2,0.6,0.2,0.9h-0.1c0-0.4-0.2-0.7-0.4-0.8c-0.1,0-0.2,0-0.3,0.1c-0.1,0.2-0.2,0.6,0.2,0.6c0-0.1,0-0.2,0-0.3
								c0.1,0,0.1,0,0.2,0c0.1,0,0.1,0.1,0.1,0.3h-0.2v0.2h0.4c0,0.1-0.1,0.2-0.2,0.3c0,0,0.1,0.2,0.2,0.1c0,0.1,0,0.2,0.1,0.3
								c0.1-0.1,0.1-0.2,0.1-0.3c0.1,0,0.2-0.1,0.2-0.1c-0.1-0.1-0.2-0.1-0.2-0.3H15z"/>
						</g>
					</g>
				</g>
			</g>
		</g>
		
			<rect x="8.1" y="0.8" style="clip-path:url(#SVGID_00000139251627253494002420000004662063978114929589_);fill:#FFFFFF;" width="2.9" height="17.6"/>
	</g>
</g>
</svg>
