<svg width="38" height="38" viewBox="0 0 38 38" fill="none" xmlns="http://www.w3.org/2000/svg">
<rect width="38" height="38" rx="19" fill="white"/>
<path d="M22.5153 8.9165H14.4844C10.9961 8.9165 8.9165 10.9961 8.9165 14.4844V22.5057C8.9165 26.0036 10.9961 28.0832 14.4844 28.0832H22.5057C25.994 28.0832 28.0736 26.0036 28.0736 22.5153V14.4844C28.0832 10.9961 26.0036 8.9165 22.5153 8.9165ZM18.4998 22.2182C16.449 22.2182 14.7815 20.5507 14.7815 18.4998C14.7815 16.449 16.449 14.7815 18.4998 14.7815C20.5507 14.7815 22.2182 16.449 22.2182 18.4998C22.2182 20.5507 20.5507 22.2182 18.4998 22.2182ZM24.1732 13.5932C24.1253 13.7082 24.0582 13.8136 23.9719 13.9094C23.8761 13.9957 23.7707 14.0628 23.6557 14.1107C23.5407 14.1586 23.4161 14.1873 23.2915 14.1873C23.0328 14.1873 22.7932 14.0915 22.6111 13.9094C22.5248 13.8136 22.4578 13.7082 22.4098 13.5932C22.3619 13.4782 22.3332 13.3536 22.3332 13.229C22.3332 13.1044 22.3619 12.9798 22.4098 12.8648C22.4578 12.7403 22.5248 12.6444 22.6111 12.5486C22.8315 12.3282 23.1669 12.2228 23.4736 12.2898C23.5407 12.2994 23.5982 12.3186 23.6557 12.3473C23.7132 12.3665 23.7707 12.3953 23.8282 12.4336C23.8761 12.4623 23.924 12.5103 23.9719 12.5486C24.0582 12.6444 24.1253 12.7403 24.1732 12.8648C24.2211 12.9798 24.2498 13.1044 24.2498 13.229C24.2498 13.3536 24.2211 13.4782 24.1732 13.5932Z" fill="black"/>
</svg>
