<svg width="35" height="36" viewBox="0 0 35 36" fill="none" xmlns="http://www.w3.org/2000/svg">
<rect x="0.15625" y="0.876953" width="34.5279" height="34.5279" rx="17.264" fill="#F58215"/>
<path d="M20.614 8.98047H13.317C10.1474 8.98047 8.25781 10.87 8.25781 14.0396V21.328C8.25781 24.5063 10.1474 26.3959 13.317 26.3959H20.6053C23.7749 26.3959 25.6645 24.5063 25.6645 21.3367V14.0396C25.6732 10.87 23.7836 8.98047 20.614 8.98047ZM16.9655 21.0668C15.1021 21.0668 13.5869 19.5516 13.5869 17.6882C13.5869 15.8247 15.1021 14.3096 16.9655 14.3096C18.829 14.3096 20.3441 15.8247 20.3441 17.6882C20.3441 19.5516 18.829 21.0668 16.9655 21.0668ZM22.1205 13.2298C22.0769 13.3343 22.016 13.4301 21.9376 13.5172C21.8505 13.5955 21.7547 13.6565 21.6503 13.7C21.5458 13.7436 21.4326 13.7697 21.3194 13.7697C21.0843 13.7697 20.8666 13.6826 20.7011 13.5172C20.6227 13.4301 20.5618 13.3343 20.5183 13.2298C20.4747 13.1253 20.4486 13.0121 20.4486 12.8989C20.4486 12.7857 20.4747 12.6725 20.5183 12.568C20.5618 12.4548 20.6227 12.3678 20.7011 12.2807C20.9014 12.0804 21.2062 11.9846 21.4848 12.0456C21.5458 12.0543 21.598 12.0717 21.6503 12.0978C21.7025 12.1152 21.7547 12.1414 21.807 12.1762C21.8505 12.2023 21.8941 12.2459 21.9376 12.2807C22.016 12.3678 22.0769 12.4548 22.1205 12.568C22.164 12.6725 22.1901 12.7857 22.1901 12.8989C22.1901 13.0121 22.164 13.1253 22.1205 13.2298Z" fill="white"/>
</svg>
