<svg width="39" height="38" viewBox="0 0 39 38" fill="none" xmlns="http://www.w3.org/2000/svg">
<g clip-path="url(#clip0_10_347)">
<path d="M19.5001 37.5845C10.0892 37.5845 0.529785 35.5657 0.529785 31.7063C0.529785 28.2626 7.89229 26.8376 11.0392 26.3923H11.1579C11.6032 26.3923 11.9892 26.7188 12.0485 27.1642C12.0782 27.4017 12.0188 27.6392 11.8704 27.8173C11.722 27.9954 11.5142 28.1438 11.2767 28.1735C4.71572 29.1235 2.28135 30.8454 2.28135 31.736C2.28135 33.3985 8.99072 35.8329 19.4704 35.8329C29.9501 35.8329 36.6595 33.3985 36.6595 31.736C36.6595 30.8454 34.1954 29.1235 27.5751 28.1735C27.3376 28.1438 27.1298 28.0251 26.9813 27.8173C26.8329 27.6392 26.7735 27.4017 26.8032 27.1642C26.8626 26.7188 27.2485 26.3923 27.6938 26.3923H27.8126C30.9892 26.8376 38.411 28.2626 38.411 31.7063C38.4407 35.536 28.911 37.5845 19.5001 37.5845ZM18.8767 31.2907C18.4313 30.8751 8.15947 21.1673 8.15947 11.6376C8.15947 5.40322 13.236 0.32666 19.4704 0.32666C25.7048 0.32666 30.7813 5.40322 30.7813 11.6376C30.7813 20.9001 20.5095 30.8454 20.0642 31.261L19.4704 31.8548L18.8767 31.2907ZM19.5001 2.10791C14.2454 2.10791 9.97041 6.38291 9.97041 11.6376C9.97041 19.0892 17.2438 27.0751 19.5001 29.361C21.786 27.0157 29.0595 18.8813 29.0595 11.6376C29.0298 6.4126 24.7548 2.10791 19.5001 2.10791ZM19.5001 16.6845C16.5313 16.6845 14.1267 14.2798 14.1267 11.311C14.1267 8.34229 16.5313 5.9376 19.5001 5.9376C22.4688 5.9376 24.8735 8.34229 24.8735 11.311C24.8735 14.2798 22.4688 16.6845 19.5001 16.6845ZM19.5001 7.71885C17.511 7.71885 15.9079 9.32197 15.9079 11.311C15.9079 13.3001 17.511 14.9032 19.5001 14.9032C21.4892 14.9032 23.0923 13.3001 23.0923 11.311C23.0923 9.32197 21.4595 7.71885 19.5001 7.71885Z" fill="currentColor"/>
</g>
<defs>
<clipPath id="clip0_10_347">
<rect width="38" height="38" fill="currentColor" transform="translate(0.5)"/>
</clipPath>
</defs>
</svg>
