<svg width="31" height="44" viewBox="0 0 31 44" fill="none" xmlns="http://www.w3.org/2000/svg">
<g clip-path="url(#clip0_10_354)">
<path d="M24.0556 4.88867H6.94444C6.29614 4.88867 5.67438 5.14621 5.21596 5.60463C4.75754 6.06306 4.5 6.68481 4.5 7.33312V36.6664C4.5 37.3148 4.75754 37.9365 5.21596 38.3949C5.67438 38.8534 6.29614 39.1109 6.94444 39.1109H24.0556C24.7039 39.1109 25.3256 38.8534 25.784 38.3949C26.2425 37.9365 26.5 37.3148 26.5 36.6664V7.33312C26.5 6.68481 26.2425 6.06306 25.784 5.60463C25.3256 5.14621 24.7039 4.88867 24.0556 4.88867ZM16.7222 36.6664H14.2778V34.222H16.7222V36.6664ZM6.94444 31.7776V7.33312H24.0556V31.7776H6.94444Z" fill="white"/>
</g>
<defs>
<clipPath id="clip0_10_354">
<rect width="30" height="44" fill="white" transform="translate(0.5)"/>
</clipPath>
</defs>
</svg>
