<?xml version="1.0" encoding="UTF-8"?>
<svg id="Layer_1" data-name="Layer 1" xmlns="http://www.w3.org/2000/svg" xmlns:xlink="http://www.w3.org/1999/xlink" viewBox="0 0 19 19">
  <defs>
    <style>
      .cls-1 {
        fill: none;
      }

      .cls-1, .cls-2, .cls-3 {
        stroke-width: 0px;
      }

      .cls-4 {
        clip-path: url(#clippath-1);
      }

      .cls-2 {
        fill: #fff;
      }

      .cls-3 {
        fill: #1a459d;
      }

      .cls-5 {
        clip-path: url(#clippath);
      }
    </style>
    <clipPath id="clippath">
      <ellipse class="cls-1" cx="9.5" cy="9.5" rx="8.2" ry="8.4"/>
    </clipPath>
    <clipPath id="clippath-1">
      <ellipse class="cls-1" cx="9.5" cy="9.5" rx="8.2" ry="8.4"/>
    </clipPath>
  </defs>
  <g id="Layer_1-2" data-name="Layer 1">
    <ellipse class="cls-3" cx="9.5" cy="9.5" rx="8.2" ry="8.4"/>
  </g>
  <g id="Layer_2" data-name="Layer 2">
    <g class="cls-5">
      <rect class="cls-2" x="8.1" y=".8" width="2.9" height="17.6"/>
    </g>
  </g>
  <g id="h">
    <path class="cls-2" d="m5.16,6.42c.05-.07.04-.22-.05-.27-.07-.04-.15-.03-.19,0-.06.04-.12.16-.12.27h.21v.24h-.43c.01.12.07.21.19.26-.01.05-.09.16-.19.15-.02.11-.03.17-.12.27-.1-.1-.11-.16-.13-.27-.1.01-.18-.1-.19-.15.12-.05.18-.14.19-.26h-.43v-.24h.21c0-.11-.06-.23-.12-.27-.04-.03-.12-.04-.19,0-.09.05-.1.2-.05.27-.44-.08-.4-.51-.25-.66.12-.12.26-.14.36-.11.23.09.38.36.39.77h.12c0-.37-.06-.49-.23-.96-.09-.22-.04-.49.11-.75.06-.09.13-.17.21-.25.07.08.14.16.2.25.15.26.2.53.11.75-.17.47-.23.59-.23.96h.12c.01-.41.16-.68.39-.77.1-.03.24-.01.36.11.15.15.19.58-.25.66Z"/>
    <g id="q">
      <path class="cls-2" d="m15.25,6.42c.05-.07.04-.22-.05-.27-.07-.04-.15-.03-.19,0-.06.04-.12.16-.12.27h.21v.24h-.43c.01.12.07.21.19.26-.01.05-.09.16-.19.15-.02.11-.03.17-.13.27-.09-.1-.1-.16-.12-.27-.1.01-.18-.1-.19-.15.12-.05.18-.14.19-.26h-.43v-.24h.21c0-.11-.06-.23-.12-.27-.04-.03-.12-.04-.19,0-.09.05-.1.2-.05.27-.44-.08-.4-.51-.25-.66.12-.12.26-.14.36-.11.23.09.38.36.39.77h.12c0-.37-.06-.49-.23-.96-.09-.22-.04-.49.11-.75.06-.09.13-.17.2-.25.08.08.15.16.21.25.15.26.2.53.11.75-.17.47-.23.59-.23.96h.12c.01-.41.16-.68.39-.77.1-.03.24-.01.36.11.15.15.19.58-.25.66Z"/>
    </g>
  </g>
  <g id="h-2" data-name="h">
    <g id="q-2" data-name="q">
      <path class="cls-2" d="m5.16,13.62c.05-.06.04-.22-.05-.27-.07-.03-.15-.02-.19.01-.06.04-.12.15-.12.27h.21v.23h-.43c.01.12.07.22.19.27-.01.05-.09.15-.19.15-.02.1-.03.17-.12.26-.1-.09-.11-.16-.13-.26-.1,0-.18-.1-.19-.15.12-.05.18-.15.19-.27h-.43v-.23h.21c0-.12-.06-.23-.12-.27-.04-.03-.12-.04-.19-.01-.09.05-.1.21-.05.27-.44-.08-.4-.5-.25-.65.12-.13.26-.15.36-.11.23.09.38.36.39.77h.12c0-.37-.06-.49-.23-.96-.09-.22-.04-.5.11-.75.06-.09.13-.17.21-.26.07.09.14.17.2.26.15.25.2.53.11.75-.17.47-.23.59-.23.96h.12c.01-.41.16-.68.39-.77.1-.04.24-.02.36.11.15.15.19.57-.25.65Z"/>
    </g>
    <g id="q-3" data-name="q">
      <path class="cls-2" d="m15.25,13.62c.05-.06.04-.22-.05-.27-.07-.03-.15-.02-.19.01-.06.04-.12.15-.12.27h.21v.23h-.43c.01.12.07.22.19.27-.01.05-.09.15-.19.15-.02.1-.03.17-.13.26-.09-.09-.1-.16-.12-.26-.1,0-.18-.1-.19-.15.12-.05.18-.15.19-.27h-.43v-.23h.21c0-.12-.06-.23-.12-.27-.04-.03-.12-.04-.19-.01-.09.05-.1.21-.05.27-.44-.08-.4-.5-.25-.65.12-.13.26-.15.36-.11.23.09.38.36.39.77h.12c0-.37-.06-.49-.23-.96-.09-.22-.04-.5.11-.75.06-.09.13-.17.2-.26.08.09.15.17.21.26.15.25.2.53.11.75-.17.47-.23.59-.23.96h.12c.01-.41.16-.68.39-.77.1-.04.24-.02.36.11.15.15.19.57-.25.65Z"/>
    </g>
  </g>
  <g class="cls-4">
    <rect class="cls-1" width="19" height="19"/>
  </g>
  <rect class="cls-2" x=".75" y="8.15" width="17.6" height="2.9"/>
</svg>