<svg width="31" height="31" viewBox="0 0 31 31" fill="none" xmlns="http://www.w3.org/2000/svg">
<path d="M10.1099 12.4882L3.27637 26.1562H5.03077L9.57421 24.3389L12.3012 26.1562H13.4347L15.3722 12.5938H15.6299L17.5674 26.1562H18.7008L21.4278 24.3389L25.9693 26.1562H27.7237L20.8892 12.4882L25.1876 13.5625H27.1251V3.875H25.1876L19.3751 5.32812V4.84375H11.6251V5.32812L5.81255 3.875H3.87505V13.5625H5.81255L10.1099 12.4882ZM19.3751 7.32569L25.1876 5.87256V11.5659L19.3751 10.1128V7.32569ZM18.7764 12.5938L24.15 23.342L21.1992 22.1611L19.1484 23.529L17.5858 12.5938H18.7764ZM13.5626 6.78125H17.4376V10.6562H13.5626V6.78125ZM12.2237 12.5938H13.4143L11.8517 23.529L9.8009 22.1611L6.85009 23.342L12.2237 12.5938ZM5.81255 5.87256L11.6251 7.32569V10.1128L5.81255 11.5659V5.87256Z" fill="white"/>
</svg>
