<svg width="27" height="27" viewBox="0 0 27 27" fill="none" xmlns="http://www.w3.org/2000/svg">
<g clip-path="url(#clip0_10_246)">
<path d="M8.95195 25.0404V19.4341L4.76758 22.5216C5.9457 23.6185 7.36758 24.4716 8.95195 25.0404Z" fill="#2A5F9E"/>
<path d="M17.0771 25.0404C18.6615 24.4716 20.0834 23.6185 21.2615 22.5216L17.0771 19.3935V25.0404Z" fill="#2A5F9E"/>
<path d="M1.51758 17.606C1.63945 18.0122 1.80195 18.3779 2.00508 18.7841L3.58945 17.606H1.51758Z" fill="#2A5F9E"/>
<path d="M22.4395 17.606L24.0238 18.7841C24.1863 18.4185 24.3488 18.0122 24.5113 17.606H22.4395Z" fill="#2A5F9E"/>
<path d="M9.56143 15.981H1.0708C1.19268 16.5497 1.35518 17.0779 1.51768 17.606H3.58955L2.00518 18.7841C2.33018 19.4747 2.6958 20.0841 3.14268 20.6935L7.32705 17.606H8.95205V18.4185L4.19893 21.9122L4.76768 22.481L8.95205 19.4341V25.0404C9.48018 25.2435 10.0083 25.3654 10.5771 25.4872V15.981H9.56143Z" fill="white"/>
<path d="M24.9584 15.981H15.4521V25.4872C16.0209 25.3654 16.549 25.2029 17.0771 25.0404V19.4341L21.2615 22.481C21.8303 21.9529 22.3178 21.3841 22.8053 20.7747L18.4584 17.606H21.2209L23.699 19.4341C23.8209 19.231 23.9428 18.9872 24.024 18.7841L22.4396 17.606H24.5115C24.674 17.0779 24.8365 16.5497 24.9584 15.981Z" fill="white"/>
<path d="M3.14258 20.6935C3.46758 21.1404 3.79258 21.5466 4.1582 21.9529L8.95195 18.4591V17.6466H7.32695L3.14258 20.6935Z" fill="#ED4C5C"/>
<path d="M18.499 17.606L22.8459 20.7747C23.0084 20.5716 23.1303 20.3685 23.2928 20.1654C23.3334 20.1247 23.3334 20.0841 23.374 20.0841C23.4959 19.881 23.6584 19.6372 23.7803 19.4341L21.2209 17.606H18.499Z" fill="#ED4C5C"/>
<path d="M17.0771 2.04661V7.65286L21.2615 4.56536C20.0834 3.46849 18.6615 2.61536 17.0771 2.04661Z" fill="#2A5F9E"/>
<path d="M8.95195 2.0466C7.36758 2.61535 5.9457 3.46848 4.76758 4.56535L8.95195 7.69348V2.0466Z" fill="#2A5F9E"/>
<path d="M24.5113 9.48097C24.3895 9.07472 24.227 8.7091 24.0238 8.30285L22.4395 9.48097H24.5113Z" fill="#2A5F9E"/>
<path d="M3.58945 9.48097L2.00508 8.30285C1.84258 8.7091 1.68008 9.07472 1.51758 9.48097H3.58945Z" fill="#2A5F9E"/>
<path d="M16.4678 11.106H24.9178C24.7959 10.5372 24.6334 10.0091 24.4709 9.48098H22.399L23.9834 8.30286C23.6584 7.61223 23.2928 7.00286 22.8459 6.39348L18.7021 9.48098H17.0771V8.66848L21.8303 5.17473L21.2615 4.60599L17.0771 7.65286V2.04661C16.549 1.84349 16.0209 1.72161 15.4521 1.59974V11.106H16.4678Z" fill="white"/>
<path d="M1.0708 11.106H10.5771V1.59974C10.0083 1.72161 9.48018 1.88411 8.95205 2.04661V7.65286L4.76768 4.60599C4.19893 5.13411 3.71143 5.70286 3.22393 6.31223L7.5708 9.48098H4.8083L2.33018 7.65286C2.2083 7.85598 2.08643 8.09973 2.00518 8.30286L3.58955 9.48098H1.51768C1.35518 10.0091 1.19268 10.5372 1.0708 11.106Z" fill="white"/>
<path d="M22.8865 6.39347C22.5615 5.9466 22.2365 5.54035 21.8709 5.1341L17.0771 8.62785V9.44035H18.7021L22.8865 6.39347Z" fill="#ED4C5C"/>
<path d="M7.53018 9.48099L3.22393 6.31224C3.06143 6.51536 2.93955 6.71849 2.77705 6.92161C2.73643 6.96224 2.73643 7.00286 2.6958 7.00286C2.57393 7.20599 2.41143 7.44974 2.28955 7.65286L4.76768 9.48099H7.53018Z" fill="#ED4C5C"/>
<path d="M24.9584 11.106H15.4521V1.59973C14.6803 1.43723 13.8678 1.35598 13.0146 1.35598C12.1615 1.35598 11.349 1.43723 10.5771 1.59973V11.106H1.0709C0.908398 11.8779 0.827148 12.6904 0.827148 13.5435C0.827148 14.3966 0.908398 15.2091 1.0709 15.981H10.5771V25.4872C11.349 25.6497 12.1615 25.731 13.0146 25.731C13.8678 25.731 14.6803 25.6497 15.4521 25.4872V15.981H24.9584C25.1209 15.2091 25.2021 14.3966 25.2021 13.5435C25.2021 12.6904 25.1209 11.8779 24.9584 11.106Z" fill="#ED4C5C"/>
</g>
<defs>
<clipPath id="clip0_10_246">
<rect width="26" height="26" fill="white" transform="translate(0.0146484 0.54348)"/>
</clipPath>
</defs>
</svg>
