<svg width="38" height="38" viewBox="0 0 38 38" fill="none" xmlns="http://www.w3.org/2000/svg">
<rect width="38" height="38" rx="19" fill="white"/>
<g clip-path="url(#clip0_88_179)">
<path fill-rule="evenodd" clip-rule="evenodd" d="M24.6121 22.8271C24.359 23.5435 23.3531 24.136 22.5509 24.3093C22.0018 24.4259 21.2856 24.5182 18.8727 23.5183C16.1627 22.3955 12.3995 18.396 12.3995 15.7345C12.3995 14.3796 13.1807 12.8019 14.5468 12.8019C15.2041 12.8019 15.349 12.8147 15.5653 13.3336C15.8183 13.9449 16.4357 15.4509 16.5092 15.6053C16.8127 16.2387 16.2005 16.6094 15.7563 17.1608C15.6146 17.3268 15.454 17.5063 15.6335 17.815C15.812 18.1175 16.4294 19.1238 17.3366 19.9314C18.5084 20.9755 19.4586 21.3088 19.7988 21.4506C20.0519 21.5556 20.3543 21.5311 20.5391 21.3337C20.7733 21.0805 21.0641 20.6606 21.3602 20.2468C21.5691 19.9506 21.8348 19.9136 22.1131 20.0186C22.301 20.0837 24.6897 21.1931 24.7905 21.3706C24.8651 21.4998 24.8651 22.1108 24.6121 22.8271ZM18.5021 8H18.4968C12.7082 8 8 12.7096 8 18.5C8 20.796 8.74026 22.9261 9.99921 24.6539L8.6909 28.5555L12.7261 27.2661C14.3861 28.3647 16.3674 29 18.5021 29C24.2907 29 29 24.2904 29 18.5C29 12.7096 24.2907 8 18.5021 8Z" fill="black"/>
</g>
<defs>
<clipPath id="clip0_88_179">
<rect width="21" height="21" fill="white" transform="translate(8 8)"/>
</clipPath>
</defs>
</svg>
