<svg width="35" height="36" viewBox="0 0 35 36" fill="none" xmlns="http://www.w3.org/2000/svg">
<rect x="0.3125" y="0.876953" width="34.5279" height="34.5279" rx="17.264" fill="#F58215"/>
<g clip-path="url(#clip0_1016_1180)">
<path fill-rule="evenodd" clip-rule="evenodd" d="M22.6723 21.6189C22.4424 22.2697 21.5284 22.8082 20.7995 22.9656C20.3005 23.0716 19.6499 23.1554 17.4574 22.2468C14.995 21.2266 11.5756 17.5926 11.5756 15.1743C11.5756 13.9432 12.2855 12.5096 13.5267 12.5096C14.1239 12.5096 14.2556 12.5213 14.4521 12.9927C14.6821 13.5482 15.2431 14.9166 15.3098 15.0569C15.5856 15.6324 15.0293 15.9693 14.6258 16.4703C14.497 16.6211 14.351 16.7841 14.5142 17.0647C14.6763 17.3396 15.2373 18.2539 16.0616 18.9877C17.1264 19.9364 17.9898 20.2392 18.2989 20.3681C18.5288 20.4635 18.8036 20.4413 18.9715 20.2618C19.1843 20.0319 19.4485 19.6503 19.7176 19.2742C19.9075 19.0051 20.1488 18.9715 20.4017 19.0669C20.5724 19.1261 22.7429 20.1341 22.8345 20.2954C22.9022 20.4128 22.9023 20.968 22.6723 21.6189ZM17.1206 8.14648H17.1159C11.8561 8.14648 7.57812 12.4258 7.57812 17.6871C7.57812 19.7733 8.25074 21.7088 9.39466 23.2787L8.2059 26.8238L11.8724 25.6522C13.3807 26.6505 15.181 27.2277 17.1206 27.2277C22.3804 27.2277 26.6593 22.9484 26.6593 17.6871C26.6593 12.4258 22.3804 8.14648 17.1206 8.14648Z" fill="white"/>
</g>
<defs>
<clipPath id="clip0_1016_1180">
<rect width="19.0812" height="19.0812" fill="white" transform="translate(7.57812 8.14648)"/>
</clipPath>
</defs>
</svg>
